<svg width="73" height="70" viewBox="0 0 73 70" fill="none" xmlns="http://www.w3.org/2000/svg">
<path d="M61.8379 12.3311C57.1125 10.2111 52.0599 8.67029 46.7775 7.79297C46.1287 8.91767 45.3708 10.4304 44.8483 11.6338C39.2329 10.824 33.6692 10.824 28.1572 11.6338C27.6347 10.4304 26.8596 8.91767 26.2051 7.79297C20.917 8.67029 15.8585 10.2167 11.1331 12.3423C1.60187 26.1533 -0.981884 39.6213 0.309996 52.898C6.6316 57.4249 12.758 60.1748 18.781 61.9742C20.2681 60.0116 21.5944 57.9254 22.737 55.7266C20.5609 54.9338 18.4767 53.9553 16.5073 52.8194C17.0298 52.4482 17.5409 52.0602 18.0346 51.6609C30.0462 57.0481 43.0971 57.0481 54.9652 51.6609C55.4647 52.0602 55.9756 52.4482 56.4924 52.8194C54.5173 53.9609 52.4273 54.9393 50.2512 55.7323C51.3938 57.9254 52.7144 60.0173 54.2072 61.9798C60.236 60.1803 66.3681 57.4305 72.6897 52.898C74.2056 37.5069 70.1003 24.1626 61.8379 12.3311ZM24.3734 44.733C20.7677 44.733 17.8106 41.5051 17.8106 37.5744C17.8106 33.6437 20.7045 30.4102 24.3734 30.4102C28.0424 30.4102 30.9993 33.638 30.9362 37.5744C30.9419 41.5051 28.0424 44.733 24.3734 44.733ZM48.6263 44.733C45.0206 44.733 42.0636 41.5051 42.0636 37.5744C42.0636 33.6437 44.9573 30.4102 48.6263 30.4102C52.2952 30.4102 55.2523 33.638 55.1891 37.5744C55.1891 41.5051 52.2952 44.733 48.6263 44.733Z" fill="#5865F2"/>
</svg>
