<svg width="72" height="70" viewBox="0 0 72 70" fill="none" xmlns="http://www.w3.org/2000/svg">
<g clip-path="url(#clip0_211_191)">
<path d="M68.025 0H3.975C1.779 0 0 1.72958 0 3.86458V66.1383C0 68.2704 1.779 70 3.975 70H38.46V42.8925H29.076V32.3283H38.46V24.5379C38.46 15.4963 44.139 10.5729 52.437 10.5729C56.412 10.5729 59.826 10.8617 60.822 10.99V20.44L55.068 20.4429C50.556 20.4429 49.683 22.5283 49.683 25.585V32.3312H60.444L59.043 42.8954H49.683V70H68.031C70.221 70 72 68.2704 72 66.1354V3.86458C72 1.72958 70.221 0 68.025 0Z" fill="black"/>
</g>
<defs>
<clipPath id="clip0_211_191">
<rect width="72" height="70" fill="white"/>
</clipPath>
</defs>
</svg>
