<svg width="73" height="70" viewBox="0 0 73 70" fill="none" xmlns="http://www.w3.org/2000/svg">
<path d="M36.4999 6.30643C46.2459 6.30643 47.4002 6.342 51.249 6.51039C54.8077 6.66613 56.7403 7.23631 58.0267 7.71549C59.7302 8.35041 60.9463 9.10898 62.2234 10.3337C63.5006 11.5584 64.2917 12.7244 64.9537 14.358C65.4536 15.5914 66.0482 17.4447 66.2106 20.857C66.3862 24.5477 66.4233 25.6546 66.4233 35.0001C66.4233 44.3455 66.3862 45.4524 66.2106 49.143C66.0482 52.5555 65.4536 54.4087 64.9537 55.6421C64.2917 57.2757 63.5006 58.4418 62.2234 59.6665C60.9463 60.8912 59.7302 61.6497 58.0267 62.2845C56.7403 62.7638 54.8077 63.334 51.249 63.4897C47.4008 63.6581 46.2465 63.6937 36.4999 63.6937C26.7534 63.6937 25.5991 63.6581 21.7509 63.4897C18.1922 63.334 16.2595 62.7638 14.9733 62.2845C13.2696 61.6497 12.0536 60.8912 10.7764 59.6665C9.49923 58.4418 8.70814 57.2757 8.04615 55.6421C7.54629 54.4087 6.95168 52.5555 6.78926 49.1431C6.61366 45.4524 6.57657 44.3455 6.57657 35.0001C6.57657 25.6546 6.61366 24.5477 6.78926 20.8571C6.95168 17.4447 7.54629 15.5914 8.04615 14.358C8.70814 12.7244 9.49923 11.5584 10.7764 10.3337C12.0536 9.10898 13.2696 8.35041 14.9733 7.71549C16.2595 7.23631 18.1922 6.66613 21.7507 6.51039C25.5996 6.342 26.754 6.30643 36.4999 6.30643ZM36.4999 0C26.5871 0 25.3442 0.0402905 21.4511 0.210622C17.566 0.380676 14.9128 0.972251 12.591 1.83752C10.1908 2.73197 8.15525 3.92874 6.12611 5.87449C4.09697 7.82024 2.84891 9.77211 1.91613 12.0737C1.01377 14.3001 0.396845 16.8442 0.219504 20.5697C0.0418723 24.3027 0 25.4946 0 35.0001C0 44.5056 0.0418723 45.6975 0.219504 49.4305C0.396845 53.1559 1.01377 55.7001 1.91613 57.9265C2.84891 60.2279 4.09697 62.1799 6.12611 64.1256C8.15525 66.0714 10.1908 67.2682 12.591 68.1626C14.9128 69.0279 17.566 69.6195 21.4511 69.7895C25.3442 69.9599 26.5871 70 36.4999 70C46.4128 70 47.6558 69.9599 51.5488 69.7895C55.4339 69.6195 58.0871 69.0279 60.4089 68.1626C62.8091 67.2682 64.8446 66.0714 66.8737 64.1256C68.9029 62.1799 70.1509 60.228 71.0837 57.9265C71.9861 55.7001 72.603 53.1559 72.7803 49.4305C72.958 45.6975 73 44.5056 73 35.0001C73 25.4946 72.958 24.3027 72.7803 20.5697C72.603 16.8442 71.9861 14.3001 71.0837 12.0737C70.1509 9.77211 68.9029 7.82024 66.8737 5.87449C64.8446 3.92874 62.8091 2.73197 60.4089 1.83752C58.0871 0.972251 55.4339 0.380676 51.5488 0.210622C47.6558 0.0402905 46.4128 0 36.4999 0ZM36.4999 17.027C26.1483 17.027 17.7566 25.0739 17.7566 35.0001C17.7566 44.9263 26.1483 52.9731 36.4999 52.9731C46.8515 52.9731 55.2432 44.9263 55.2432 35.0001C55.2432 25.0739 46.8515 17.027 36.4999 17.027ZM36.4999 46.6668C29.7805 46.6668 24.3332 41.4434 24.3332 35.0001C24.3332 28.5568 29.7805 23.3333 36.4999 23.3333C43.2194 23.3333 48.6667 28.5568 48.6667 35.0001C48.6667 41.4434 43.2194 46.6668 36.4999 46.6668ZM60.3637 16.317C60.3637 18.6366 58.4028 20.517 55.9837 20.517C53.5647 20.517 51.6037 18.6366 51.6037 16.317C51.6037 13.9973 53.5647 12.117 55.9837 12.117C58.4028 12.117 60.3637 13.9973 60.3637 16.317Z" fill="#0A0A08"/>
</svg>
