<svg width="73" height="70" viewBox="0 0 73 70" fill="none" xmlns="http://www.w3.org/2000/svg">
<path fill-rule="evenodd" clip-rule="evenodd" d="M0 0V70H73V0H0ZM61.7394 15.4892L53.1626 55.0486C52.9606 55.9826 51.8184 56.4058 51.0126 55.8443L39.3045 47.6934C38.5937 47.1985 37.6245 47.2248 36.9441 47.7568L30.4527 52.8308C29.6994 53.4215 28.5642 53.0923 28.2757 52.2026L23.7683 38.3025L12.1231 34.1349C10.9402 33.71 10.9301 32.1086 12.1097 31.6729L59.9017 13.9937C60.9149 13.618 61.9602 14.4691 61.7394 15.4892Z" fill="black"/>
<path fill-rule="evenodd" clip-rule="evenodd" d="M50.3085 22.6429L27.5495 36.084C26.6772 36.6001 26.2667 37.6103 26.5481 38.556L29.0087 46.8469C29.1838 47.4343 30.0726 47.3743 30.1578 46.7674L30.7973 42.2207C30.9181 41.3647 31.3438 40.5757 32.0041 39.9866L50.7866 23.2447C51.1383 22.9324 50.7173 22.4021 50.3085 22.6429Z" fill="black"/>
</svg>
